<svg xmlns="http://www.w3.org/2000/svg" xmlns:xlink="http://www.w3.org/1999/xlink" width="1920" zoomAndPan="magnify" viewBox="0 0 1440 809.999993" height="1080" preserveAspectRatio="xMidYMid meet" version="1.0"><defs><g/><clipPath id="ba71eae25b"><path d="M 803 249 L 938 249 L 938 600 L 803 600 Z M 803 249 " clip-rule="nonzero"/></clipPath><clipPath id="d4623e1d51"><path d="M 610.351562 376.808594 L 849 138.160156 L 1104.621094 393.78125 L 865.972656 632.429688 Z M 610.351562 376.808594 " clip-rule="nonzero"/></clipPath><clipPath id="830c4ceaf4"><path d="M 610.351562 376.808594 L 849 138.160156 L 1104.621094 393.78125 L 865.972656 632.429688 Z M 610.351562 376.808594 " clip-rule="nonzero"/></clipPath><clipPath id="13718b98ce"><path d="M 817 302 L 924 302 L 924 586 L 817 586 Z M 817 302 " clip-rule="nonzero"/></clipPath><clipPath id="ea7879552e"><path d="M 610.351562 376.808594 L 849 138.160156 L 1104.621094 393.78125 L 865.972656 632.429688 Z M 610.351562 376.808594 " clip-rule="nonzero"/></clipPath><clipPath id="91abf526e6"><path d="M 610.351562 376.808594 L 849 138.160156 L 1104.621094 393.78125 L 865.972656 632.429688 Z M 610.351562 376.808594 " clip-rule="nonzero"/></clipPath><clipPath id="c08ab6dfd1"><path d="M 831 380 L 864 380 L 864 575 L 831 575 Z M 831 380 " clip-rule="nonzero"/></clipPath><clipPath id="3216e39649"><path d="M 610.351562 376.808594 L 849 138.160156 L 1104.621094 393.78125 L 865.972656 632.429688 Z M 610.351562 376.808594 " clip-rule="nonzero"/></clipPath><clipPath id="280206743e"><path d="M 610.351562 376.808594 L 849 138.160156 L 1104.621094 393.78125 L 865.972656 632.429688 Z M 610.351562 376.808594 " clip-rule="nonzero"/></clipPath><clipPath id="dc308e6227"><path d="M 793 230 L 948 230 L 948 259 L 793 259 Z M 793 230 " clip-rule="nonzero"/></clipPath><clipPath id="b2fa5829d4"><path d="M 610.351562 376.808594 L 849 138.160156 L 1104.621094 393.78125 L 865.972656 632.429688 Z M 610.351562 376.808594 " clip-rule="nonzero"/></clipPath><clipPath id="0e72dd5838"><path d="M 610.351562 376.808594 L 849 138.160156 L 1104.621094 393.78125 L 865.972656 632.429688 Z M 610.351562 376.808594 " clip-rule="nonzero"/></clipPath><clipPath id="c9a634cba9"><path d="M 876 446 L 901 446 L 901 471 L 876 471 Z M 876 446 " clip-rule="nonzero"/></clipPath><clipPath id="48ac75d57b"><path d="M 610.351562 376.808594 L 849 138.160156 L 1104.621094 393.78125 L 865.972656 632.429688 Z M 610.351562 376.808594 " clip-rule="nonzero"/></clipPath><clipPath id="9664bb7996"><path d="M 610.351562 376.808594 L 849 138.160156 L 1104.621094 393.78125 L 865.972656 632.429688 Z M 610.351562 376.808594 " clip-rule="nonzero"/></clipPath><clipPath id="1ec11e0089"><path d="M 860 493 L 875 493 L 875 508 L 860 508 Z M 860 493 " clip-rule="nonzero"/></clipPath><clipPath id="c673e9dcf0"><path d="M 610.351562 376.808594 L 849 138.160156 L 1104.621094 393.78125 L 865.972656 632.429688 Z M 610.351562 376.808594 " clip-rule="nonzero"/></clipPath><clipPath id="5d1b9834db"><path d="M 610.351562 376.808594 L 849 138.160156 L 1104.621094 393.78125 L 865.972656 632.429688 Z M 610.351562 376.808594 " clip-rule="nonzero"/></clipPath><clipPath id="419c23a5dc"><path d="M 878 379 L 894 379 L 894 395 L 878 395 Z M 878 379 " clip-rule="nonzero"/></clipPath><clipPath id="6b2f85c64a"><path d="M 610.351562 376.808594 L 849 138.160156 L 1104.621094 393.78125 L 865.972656 632.429688 Z M 610.351562 376.808594 " clip-rule="nonzero"/></clipPath><clipPath id="1e2d249240"><path d="M 610.351562 376.808594 L 849 138.160156 L 1104.621094 393.78125 L 865.972656 632.429688 Z M 610.351562 376.808594 " clip-rule="nonzero"/></clipPath><clipPath id="9ceb31abf2"><path d="M 898 518 L 914 518 L 914 533 L 898 533 Z M 898 518 " clip-rule="nonzero"/></clipPath><clipPath id="cd291ea44d"><path d="M 610.351562 376.808594 L 849 138.160156 L 1104.621094 393.78125 L 865.972656 632.429688 Z M 610.351562 376.808594 " clip-rule="nonzero"/></clipPath><clipPath id="0bc9449ebb"><path d="M 610.351562 376.808594 L 849 138.160156 L 1104.621094 393.78125 L 865.972656 632.429688 Z M 610.351562 376.808594 " clip-rule="nonzero"/></clipPath><clipPath id="eba5a2f334"><path d="M 859 268 L 875 268 L 875 283 L 859 283 Z M 859 268 " clip-rule="nonzero"/></clipPath><clipPath id="89fafc995e"><path d="M 610.351562 376.808594 L 849 138.160156 L 1104.621094 393.78125 L 865.972656 632.429688 Z M 610.351562 376.808594 " clip-rule="nonzero"/></clipPath><clipPath id="a05b0f2209"><path d="M 610.351562 376.808594 L 849 138.160156 L 1104.621094 393.78125 L 865.972656 632.429688 Z M 610.351562 376.808594 " clip-rule="nonzero"/></clipPath><clipPath id="1dbb15e503"><path d="M 886 299 L 906 299 L 906 319 L 886 319 Z M 886 299 " clip-rule="nonzero"/></clipPath><clipPath id="82a1d7b57a"><path d="M 610.351562 376.808594 L 849 138.160156 L 1104.621094 393.78125 L 865.972656 632.429688 Z M 610.351562 376.808594 " clip-rule="nonzero"/></clipPath><clipPath id="87ebab4e76"><path d="M 610.351562 376.808594 L 849 138.160156 L 1104.621094 393.78125 L 865.972656 632.429688 Z M 610.351562 376.808594 " clip-rule="nonzero"/></clipPath><clipPath id="198e9c0291"><path d="M 842 208 L 857 208 L 857 223 L 842 223 Z M 842 208 " clip-rule="nonzero"/></clipPath><clipPath id="47084197cf"><path d="M 610.351562 376.808594 L 849 138.160156 L 1104.621094 393.78125 L 865.972656 632.429688 Z M 610.351562 376.808594 " clip-rule="nonzero"/></clipPath><clipPath id="65fef1595b"><path d="M 610.351562 376.808594 L 849 138.160156 L 1104.621094 393.78125 L 865.972656 632.429688 Z M 610.351562 376.808594 " clip-rule="nonzero"/></clipPath><clipPath id="27e9336d6c"><path d="M 797 186 L 812 186 L 812 201 L 797 201 Z M 797 186 " clip-rule="nonzero"/></clipPath><clipPath id="0136dfcb31"><path d="M 610.351562 376.808594 L 849 138.160156 L 1104.621094 393.78125 L 865.972656 632.429688 Z M 610.351562 376.808594 " clip-rule="nonzero"/></clipPath><clipPath id="98cc1b1aa6"><path d="M 610.351562 376.808594 L 849 138.160156 L 1104.621094 393.78125 L 865.972656 632.429688 Z M 610.351562 376.808594 " clip-rule="nonzero"/></clipPath><clipPath id="6347fe07b6"><path d="M 831 254 L 845 254 L 845 395 L 831 395 Z M 831 254 " clip-rule="nonzero"/></clipPath><clipPath id="e202d73170"><path d="M 610.351562 376.808594 L 849 138.160156 L 1104.621094 393.78125 L 865.972656 632.429688 Z M 610.351562 376.808594 " clip-rule="nonzero"/></clipPath><clipPath id="5eddd38485"><path d="M 610.351562 376.808594 L 849 138.160156 L 1104.621094 393.78125 L 865.972656 632.429688 Z M 610.351562 376.808594 " clip-rule="nonzero"/></clipPath></defs><g fill="#8c52ff" fill-opacity="1"><g transform="translate(-13.353788, 555.845092)"><g><path d="M 10.234375 0 L 124.1875 -311.59375 L 188.28125 -311.59375 L 302.234375 0 L 241.703125 0 L 216.78125 -72.109375 L 95.25 -72.109375 L 69.890625 0 Z M 110.84375 -116.625 L 201.203125 -116.625 L 155.796875 -246.15625 Z M 110.84375 -116.625 "/></g></g></g><g fill="#8c52ff" fill-opacity="1"><g transform="translate(271.969955, 555.845092)"><g><path d="M 204.3125 97.921875 L 204.3125 -31.609375 C 197.1875 -21.816406 187.765625 -13.207031 176.046875 -5.78125 C 164.328125 1.632812 149.117188 5.34375 130.421875 5.34375 C 109.648438 5.34375 91.101562 0.300781 74.78125 -9.78125 C 58.457031 -19.875 45.546875 -33.675781 36.046875 -51.1875 C 26.554688 -68.695312 21.8125 -88.582031 21.8125 -110.84375 C 21.8125 -133.09375 26.554688 -152.894531 36.046875 -170.25 C 45.546875 -187.613281 58.457031 -201.265625 74.78125 -211.203125 C 91.101562 -221.148438 109.648438 -226.125 130.421875 -226.125 C 147.035156 -226.125 161.570312 -223.003906 174.03125 -216.765625 C 186.5 -210.535156 196.59375 -201.785156 204.3125 -190.515625 L 210.546875 -220.78125 L 261.28125 -220.78125 L 261.28125 97.921875 Z M 142.4375 -44.515625 C 160.832031 -44.515625 175.890625 -50.671875 187.609375 -62.984375 C 199.335938 -75.296875 205.203125 -91.097656 205.203125 -110.390625 C 205.203125 -129.679688 199.335938 -145.484375 187.609375 -157.796875 C 175.890625 -170.109375 160.832031 -176.265625 142.4375 -176.265625 C 124.332031 -176.265625 109.34375 -170.179688 97.46875 -158.015625 C 85.601562 -145.847656 79.671875 -130.125 79.671875 -110.84375 C 79.671875 -91.550781 85.601562 -75.671875 97.46875 -63.203125 C 109.34375 -50.742188 124.332031 -44.515625 142.4375 -44.515625 Z M 142.4375 -44.515625 "/></g></g></g><g fill="#8c52ff" fill-opacity="1"><g transform="translate(535.482743, 555.845092)"><g><path d="M 56.53125 97.921875 L 107.71875 -14.6875 L 94.359375 -14.6875 L 8.453125 -220.78125 L 70.328125 -220.78125 L 132.203125 -65.4375 L 196.75 -220.78125 L 257.28125 -220.78125 L 117.0625 97.921875 Z M 56.53125 97.921875 "/></g></g></g><g fill="#000000" fill-opacity="1"><g transform="translate(774.515944, 555.845092)"><g/></g></g><g fill="#000000" fill-opacity="1"><g transform="translate(853.7477, 555.845092)"><g/></g></g><g fill="#8c52ff" fill-opacity="1"><g transform="translate(932.97986, 555.845092)"><g><path d="M 105.046875 5.34375 C 86.054688 5.34375 70.476562 2.300781 58.3125 -3.78125 C 46.144531 -9.863281 37.09375 -17.945312 31.15625 -28.03125 C 25.21875 -38.125 22.25 -49.253906 22.25 -61.421875 C 22.25 -81.898438 30.257812 -98.519531 46.28125 -111.28125 C 62.3125 -124.039062 86.351562 -130.421875 118.40625 -130.421875 L 174.484375 -130.421875 L 174.484375 -135.765625 C 174.484375 -150.898438 170.179688 -162.023438 161.578125 -169.140625 C 152.972656 -176.265625 142.289062 -179.828125 129.53125 -179.828125 C 117.957031 -179.828125 107.867188 -177.082031 99.265625 -171.59375 C 90.660156 -166.101562 85.316406 -158.019531 83.234375 -147.34375 L 27.59375 -147.34375 C 29.082031 -163.363281 34.5 -177.304688 43.84375 -189.171875 C 53.1875 -201.046875 65.273438 -210.171875 80.109375 -216.546875 C 94.953125 -222.929688 111.570312 -226.125 129.96875 -226.125 C 161.425781 -226.125 186.207031 -218.257812 204.3125 -202.53125 C 222.414062 -186.800781 231.46875 -164.546875 231.46875 -135.765625 L 231.46875 0 L 182.953125 0 L 177.609375 -35.609375 C 171.078125 -23.742188 161.945312 -13.953125 150.21875 -6.234375 C 138.5 1.484375 123.441406 5.34375 105.046875 5.34375 Z M 117.953125 -39.171875 C 134.273438 -39.171875 146.960938 -44.507812 156.015625 -55.1875 C 165.066406 -65.875 170.78125 -79.082031 173.15625 -94.8125 L 124.640625 -94.8125 C 109.503906 -94.8125 98.671875 -92.066406 92.140625 -86.578125 C 85.609375 -81.085938 82.34375 -74.335938 82.34375 -66.328125 C 82.34375 -57.722656 85.609375 -51.046875 92.140625 -46.296875 C 98.671875 -41.546875 107.273438 -39.171875 117.953125 -39.171875 Z M 117.953125 -39.171875 "/></g></g></g><g fill="#8c52ff" fill-opacity="1"><g transform="translate(1163.108309, 555.845092)"><g><path d="M 159.796875 5.34375 C 143.179688 5.34375 128.640625 2.226562 116.171875 -4 C 103.710938 -10.238281 93.625 -18.992188 85.90625 -30.265625 L 79.671875 0 L 28.9375 0 L 28.9375 -320.484375 L 85.90625 -320.484375 L 85.90625 -189.171875 C 93.03125 -198.972656 102.453125 -207.582031 114.171875 -215 C 125.890625 -222.414062 141.097656 -226.125 159.796875 -226.125 C 180.566406 -226.125 199.113281 -221.078125 215.4375 -210.984375 C 231.757812 -200.898438 244.664062 -187.101562 254.15625 -169.59375 C 263.65625 -152.082031 268.40625 -132.203125 268.40625 -109.953125 C 268.40625 -87.691406 263.65625 -67.878906 254.15625 -50.515625 C 244.664062 -33.160156 231.757812 -19.507812 215.4375 -9.5625 C 199.113281 0.375 180.566406 5.34375 159.796875 5.34375 Z M 147.78125 -44.515625 C 165.882812 -44.515625 180.867188 -50.597656 192.734375 -62.765625 C 204.609375 -74.929688 210.546875 -90.660156 210.546875 -109.953125 C 210.546875 -129.234375 204.609375 -145.101562 192.734375 -157.5625 C 180.867188 -170.03125 165.882812 -176.265625 147.78125 -176.265625 C 129.382812 -176.265625 114.320312 -170.109375 102.59375 -157.796875 C 90.875 -145.484375 85.015625 -129.679688 85.015625 -110.390625 C 85.015625 -91.097656 90.875 -75.296875 102.59375 -62.984375 C 114.320312 -50.671875 129.382812 -44.515625 147.78125 -44.515625 Z M 147.78125 -44.515625 "/></g></g></g><g clip-path="url(#ba71eae25b)"><g clip-path="url(#d4623e1d51)"><g clip-path="url(#830c4ceaf4)"><path fill="#dac7ff" d="M 918.109375 580.042969 C 905.417969 592.734375 888.535156 599.722656 870.582031 599.722656 C 833.515625 599.710938 803.371094 569.566406 803.359375 532.5 L 803.359375 249.238281 L 937.789062 249.253906 L 937.789062 532.515625 C 937.804688 550.457031 930.800781 567.351562 918.109375 580.042969 " fill-opacity="1" fill-rule="nonzero"/></g></g></g><g clip-path="url(#13718b98ce)"><g clip-path="url(#ea7879552e)"><g clip-path="url(#91abf526e6)"><path fill="#8c52ff" d="M 923.441406 302.113281 L 923.386719 532.515625 C 923.402344 561.675781 899.757812 585.320312 870.582031 585.320312 C 841.40625 585.320312 817.761719 561.675781 817.773438 532.515625 L 817.761719 407.792969 L 923.441406 302.113281 " fill-opacity="1" fill-rule="nonzero"/></g></g></g><g clip-path="url(#c08ab6dfd1)"><g clip-path="url(#3216e39649)"><g clip-path="url(#280206743e)"><path fill="#faf7ff" d="M 844.921875 380.632812 L 831.339844 394.210938 L 831.355469 525.722656 C 831.339844 547.355469 844.375 565.933594 863.007812 574.089844 C 862.585938 573.347656 844.921875 563.691406 844.933594 525.722656 L 844.921875 380.632812 " fill-opacity="1" fill-rule="nonzero"/></g></g></g><g clip-path="url(#dc308e6227)"><g clip-path="url(#b2fa5829d4)"><g clip-path="url(#0e72dd5838)"><path fill="#dac7ff" d="M 943.1875 254.625 C 940.46875 257.34375 936.847656 258.839844 932.988281 258.855469 L 808.160156 258.839844 C 800.230469 258.839844 793.773438 252.382812 793.757812 244.4375 C 793.757812 240.59375 795.257812 236.972656 797.976562 234.253906 C 800.695312 231.535156 804.3125 230.035156 808.160156 230.035156 L 932.988281 230.050781 C 940.933594 230.035156 947.390625 236.496094 947.402344 244.4375 C 947.402344 248.285156 945.90625 251.90625 943.1875 254.625 " fill-opacity="1" fill-rule="nonzero"/></g></g></g><g clip-path="url(#c9a634cba9)"><g clip-path="url(#48ac75d57b)"><g clip-path="url(#9664bb7996)"><path fill="#faf7ff" d="M 900.789062 458.039062 C 900.804688 464.65625 895.417969 470.039062 888.777344 470.027344 C 882.160156 470.039062 876.773438 464.65625 876.789062 458.039062 C 876.789062 451.40625 882.171875 446.023438 888.777344 446.023438 C 895.417969 446.011719 900.804688 451.394531 900.789062 458.039062 " fill-opacity="1" fill-rule="nonzero"/></g></g></g><g clip-path="url(#1ec11e0089)"><g clip-path="url(#c673e9dcf0)"><g clip-path="url(#5d1b9834db)"><path fill="#faf7ff" d="M 874.546875 500.382812 C 874.546875 504.359375 871.324219 507.582031 867.34375 507.582031 C 863.378906 507.597656 860.15625 504.375 860.144531 500.382812 C 860.15625 496.417969 863.378906 493.195312 867.34375 493.179688 C 871.335938 493.195312 874.558594 496.417969 874.546875 500.382812 " fill-opacity="1" fill-rule="nonzero"/></g></g></g><g clip-path="url(#419c23a5dc)"><g clip-path="url(#6b2f85c64a)"><g clip-path="url(#1e2d249240)"><path fill="#faf7ff" d="M 893.230469 386.929688 C 893.230469 390.910156 889.996094 394.144531 886.03125 394.132812 C 882.050781 394.132812 878.828125 390.910156 878.828125 386.929688 C 878.816406 382.964844 882.050781 379.730469 886.03125 379.730469 C 889.996094 379.742188 893.21875 382.964844 893.230469 386.929688 " fill-opacity="1" fill-rule="nonzero"/></g></g></g><g clip-path="url(#9ceb31abf2)"><g clip-path="url(#cd291ea44d)"><g clip-path="url(#0bc9449ebb)"><path fill="#faf7ff" d="M 913.175781 525.699219 C 913.175781 529.675781 909.941406 532.910156 905.976562 532.898438 C 901.996094 532.898438 898.773438 529.675781 898.773438 525.699219 C 898.761719 521.734375 901.996094 518.496094 905.976562 518.496094 C 909.941406 518.511719 913.164062 521.734375 913.175781 525.699219 " fill-opacity="1" fill-rule="nonzero"/></g></g></g><g clip-path="url(#eba5a2f334)"><g clip-path="url(#89fafc995e)"><g clip-path="url(#a05b0f2209)"><path fill="#8c52ff" d="M 874.386719 275.789062 C 874.386719 279.765625 871.164062 282.988281 867.1875 282.988281 C 863.207031 282.988281 859.972656 279.78125 859.957031 275.789062 C 859.972656 271.796875 863.207031 268.585938 867.1875 268.585938 C 871.164062 268.585938 874.386719 271.808594 874.386719 275.789062 " fill-opacity="1" fill-rule="nonzero"/></g></g></g><g clip-path="url(#1dbb15e503)"><g clip-path="url(#82a1d7b57a)"><g clip-path="url(#87ebab4e76)"><path fill="#8c52ff" d="M 905.828125 308.980469 C 905.828125 314.285156 901.53125 318.582031 896.230469 318.582031 C 890.925781 318.582031 886.628906 314.285156 886.628906 308.980469 C 886.628906 303.675781 890.925781 299.378906 896.230469 299.378906 C 901.53125 299.378906 905.828125 303.675781 905.828125 308.980469 " fill-opacity="1" fill-rule="nonzero"/></g></g></g><g clip-path="url(#198e9c0291)"><g clip-path="url(#47084197cf)"><g clip-path="url(#65fef1595b)"><path fill="#8c52ff" d="M 856.988281 215.289062 C 856.988281 219.269531 853.765625 222.492188 849.789062 222.492188 C 845.808594 222.492188 842.585938 219.269531 842.585938 215.289062 C 842.585938 211.3125 845.808594 208.089844 849.789062 208.089844 C 853.765625 208.089844 856.988281 211.3125 856.988281 215.289062 " fill-opacity="1" fill-rule="nonzero"/></g></g></g><g clip-path="url(#27e9336d6c)"><g clip-path="url(#0136dfcb31)"><g clip-path="url(#98cc1b1aa6)"><path fill="#8c52ff" d="M 811.875 193.648438 C 811.859375 197.640625 808.636719 200.863281 804.671875 200.847656 C 800.679688 200.863281 797.457031 197.640625 797.472656 193.648438 C 797.457031 189.683594 800.679688 186.460938 804.671875 186.445312 C 808.636719 186.460938 811.859375 189.683594 811.875 193.648438 " fill-opacity="1" fill-rule="nonzero"/></g></g></g><g clip-path="url(#6347fe07b6)"><g clip-path="url(#e202d73170)"><g clip-path="url(#5eddd38485)"><path fill="#faf7ff" d="M 844.921875 254.039062 L 844.921875 380.632812 L 831.339844 394.210938 L 831.339844 254.039062 L 844.921875 254.039062 " fill-opacity="1" fill-rule="nonzero"/></g></g></g></svg>